<svg xmlns="http://www.w3.org/2000/svg" viewBox="0 0 205 210" width="1640" height="1680"><path d="M 14 171 L 25 168 L 38 149 L 79 38 L 113 122 L 141 122 L 118 69 L 108 97 L 104 90 L 123 39 L 139 81 L 169 145 L 180 163 L 196 173 L 151 173 L 158 168 L 158 161 L 143 126 L 115 126 L 131 161 L 143 173 L 113 173 L 116 167 L 97 124 L 89 155 L 92 165 L 105 173 L 64 173 L 73 168 L 81 157 L 92 124 L 52 126 L 45 149 L 45 163 L 48 168 L 57 171 L 56 173 L 14 171 Z M 54 121 L 95 122 L 73 69 L 54 121 Z" fill="#1f1f1f" fill-rule="evenodd"/></svg>